# xmcd
#
# Track frame offsets:
# 150
# 11248
# 23370
# 36303
# 51320
# 66786
# 77561
# 98625
# 111713
# 121328
# 137415
# 148823
#
# Disc length: 2319 seconds
#
#
# Revision: 0
# Processed by: cddbd v1.5.2PL0 Copyright (c) Steve Scherf et al.
# Submitted via: Nero 7, 11, 10, 0 
#
DISCID=a3090d0c
DTITLE=Jamie Wood - Hollywood Confidential
DYEAR=2005
DGENRE=Blues
TTITLE0=Ella Mae
TTITLE1=This Can't Be Love
TTITLE2=Everything's Movin' Too Fast
TTITLE3=In My Girlish Days
TTITLE4=Early in the Morning
TTITLE5=Yeah Yeah Yeah
TTITLE6=One Monkey Don't Stop No Show
TTITLE7=Song for Mr. X
TTITLE8=Buena Vista Swing
TTITLE9=Gone Too Long
TTITLE10=Gotta Gimme Whatcha Got
TTITLE11=No Sweat
EXTD=
EXTT0=Ella Mae
EXTT1=This Can't Be Love
EXTT2=Everything's Movin' Too Fast
EXTT3=In My Girlish Days
EXTT4=Early in the Morning
EXTT5=Yeah Yeah Yeah
EXTT6=One Monkey Don't Stop No Show
EXTT7=Song for Mr. X
EXTT8=Buena Vista Swing
EXTT9=Gone Too Long
EXTT10=Gotta Gimme Whatcha Got
EXTT11=No Sweat
PLAYORDER=
